<?xml version="1.0" encoding="UTF-8" standalone="no"?>
<!-- Created with Inkscape (http://www.inkscape.org/) -->

<svg
   xmlns:dc="http://purl.org/dc/elements/1.1/"
   xmlns:cc="http://creativecommons.org/ns#"
   xmlns:rdf="http://www.w3.org/1999/02/22-rdf-syntax-ns#"
   xmlns:svg="http://www.w3.org/2000/svg"
   xmlns="http://www.w3.org/2000/svg"
   xmlns:sodipodi="http://sodipodi.sourceforge.net/DTD/sodipodi-0.dtd"
   xmlns:inkscape="http://www.inkscape.org/namespaces/inkscape"
   id="svg2"
   version="1.1"
   inkscape:version="0.91 r"
   xml:space="preserve"
   width="272.96124"
   height="74.764252"
   viewBox="0 0 272.96124 74.764252"
   sodipodi:docname="logo-hcurien.svg"><metadata
     id="metadata8"><rdf:RDF><cc:Work
         rdf:about=""><dc:format>image/svg+xml</dc:format><dc:type
           rdf:resource="http://purl.org/dc/dcmitype/StillImage" /><dc:title></dc:title></cc:Work></rdf:RDF></metadata><defs
     id="defs6"><clipPath
       clipPathUnits="userSpaceOnUse"
       id="clipPath20"><path
         d="m 0,59.811 218.369,0 L 218.369,0 0,0 0,59.811 Z"
         id="path22"
         inkscape:connector-curvature="0" /></clipPath></defs><sodipodi:namedview
     pagecolor="#ffffff"
     bordercolor="#666666"
     borderopacity="1"
     objecttolerance="10"
     gridtolerance="10"
     guidetolerance="10"
     inkscape:pageopacity="0"
     inkscape:pageshadow="2"
     inkscape:window-width="1600"
     inkscape:window-height="848"
     id="namedview4"
     showgrid="false"
     inkscape:zoom="2.2640992"
     inkscape:cx="179.2831"
     inkscape:cy="58.176691"
     inkscape:window-x="0"
     inkscape:window-y="0"
     inkscape:window-maximized="1"
     inkscape:current-layer="g10" /><g
     id="g10"
     inkscape:groupmode="layer"
     inkscape:label="UJM-H_CURIEN_pantone"
     transform="matrix(1.25,0,0,-1.25,0,74.76425)"><g
       id="g12"
       transform="translate(21.4778,46.3509)"><path
         d="m 0,0 0,4.353 -12.794,0.023 0,-4.375 3.424,-2.211 -3.424,-2.164 0,-4.375 L 0,-8.772 l 0,4.354 -7.376,0 -0.024,0.042 3.127,2.167 -3.126,2.165 L -7.374,0 0,0 Z"
         style="fill:#ea530d;fill-opacity:0.98823529;fill-rule:nonzero;stroke:none"
         id="path14"
         inkscape:connector-curvature="0" /></g><g
       id="g16"><g
         id="g18"
         clip-path="url(#clipPath20)"><g
           id="g24"
           transform="translate(25.7122,50.7044)"
           style="fill:#ea530d;fill-opacity:0.99607843"><path
             d="m 0,0 0,-21.761 c 0,-6.009 -4.775,-10.898 -10.644,-10.898 -5.869,0 -10.644,4.889 -10.644,10.898 l 0,21.761 -4.424,0 0,-21.761 c 0,-8.507 6.759,-15.429 15.068,-15.429 8.308,0 15.068,6.922 15.068,15.429 L 4.424,0 0,0 Z"
             style="fill:#ea530d;fill-opacity:0.99607843;fill-rule:nonzero;stroke:none"
             id="path26"
             inkscape:connector-curvature="0" /></g><path
           d="m 30.136,59.455 -30.136,0 0,-4.375 30.136,0 0,4.375 z"
           style="fill:#04365f;fill-opacity:1;fill-rule:nonzero;stroke:none"
           id="path28"
           inkscape:connector-curvature="0" /><g
           id="g30"
           transform="translate(15.0681,35.391)"
           style="fill:#ea530d;fill-opacity:0.99607843"><path
             d="m 0,0 -6.41,0 0,-4.375 6.41,0 c 1.18,0 2.137,-0.98 2.137,-2.188 C 2.137,-7.771 1.18,-8.75 0,-8.75 l -2.136,0 0,-4.376 2.136,0 c 3.54,0 6.41,2.938 6.41,6.563 C 6.41,-2.938 3.54,0 0,0"
             style="fill:#ea530d;fill-opacity:0.99607843;fill-rule:nonzero;stroke:none"
             id="path32"
             inkscape:connector-curvature="0" /></g><path
           d="m 77.716,4.572 -30.378,0 0,-4.522 30.378,0 0,4.522 z"
           style="fill:#04365f;fill-opacity:1;fill-rule:nonzero;stroke:none"
           id="path34"
           inkscape:connector-curvature="0" /><text
           transform="matrix(0.97664205,0,0,-1,84.1563,0)"
           style="font-variant:normal;font-weight:normal;font-stretch:normal;font-size:7.21810007px;font-family:'Klavika Basic Regular';-inkscape-font-specification:KlavikaBasic-Regular;writing-mode:lr-tb;fill:#04365f;fill-opacity:1;fill-rule:nonzero;stroke:none;"
           id="text36"><tspan
             x="0 4.9227443 11.043693 15.966437 17.879234 20.932489 22.845287 26.930731 32.055584 36.978325 41.237007 43.149803 46.203056 48.115856 52.056938 55.947495 58.834732 62.891304 64.8041 67.857361 69.770157 74.007179 78.857742 81.138664 86.263512 89.648804 92.680405 96.939079 101.08228 103.36319 107.62187 112.74672 117.87157"
             y="0"
             sodipodi:role="line"
             id="tspan38">UMR • CNRS • 5516 • SAINT-ETIENNE</tspan></text>
<g
           id="g40"
           transform="translate(47.5115,59.4619)"
           style="fill:#04365f;fill-opacity:1"><path
             d="m 0,0 5.339,0 0,-14.948 4.004,0 0,-4.421 -9.343,0 L 0,0 Z"
             style="fill:#04365f;fill-opacity:1;fill-rule:nonzero;stroke:none"
             id="path42"
             inkscape:connector-curvature="0" /></g><g
           id="g44"
           transform="translate(65.0056,47.8584)"
           style="fill:#04365f;fill-opacity:1"><path
             d="M 0,0 1.477,0 0.738,7.184 0,0 Z m 7.837,-7.766 -5.566,0 -0.369,3.432 -2.357,0 -0.34,-3.432 -5.566,0 3.748,19.37 6.702,0 3.748,-19.37 z"
             style="fill:#04365f;fill-opacity:1;fill-rule:nonzero;stroke:none"
             id="path46"
             inkscape:connector-curvature="0" /></g><g
           id="g48"
           transform="translate(81.2507,44.3095)"
           style="fill:#04365f;fill-opacity:1"><path
             d="m 0,0 c 0.54,0 0.795,0.291 0.795,0.757 l 0,2.035 C 0.795,3.315 0.511,3.549 0,3.549 l -1.25,0 L -1.25,0 0,0 Z m -0.227,7.504 c 0.482,0 0.681,0.262 0.681,0.726 l 0,2.037 c 0,0.407 -0.199,0.669 -0.681,0.669 l -1.023,0 0,-3.432 1.023,0 z m -6.191,7.648 7.639,0 c 3.01,0 4.288,-1.541 4.288,-3.984 l 0,-2.007 C 5.509,7.736 5.055,6.486 3.606,5.846 5.225,5.497 6.077,4.188 6.077,2.211 l 0,-1.891 c 0,-2.762 -1.306,-4.537 -4.827,-4.537 l -7.668,0 0,19.369 z"
             style="fill:#04365f;fill-opacity:1;fill-rule:nonzero;stroke:none"
             id="path50"
             inkscape:connector-curvature="0" /></g><g
           id="g52"
           transform="translate(96.8996,45.2402)"
           style="fill:#04365f;fill-opacity:1"><path
             d="m 0,0 0,9.074 c 0,0.698 -0.284,1.134 -1.022,1.134 -0.739,0 -1.023,-0.436 -1.023,-1.134 l 0,-9.074 c 0,-0.697 0.284,-1.134 1.023,-1.134 C -0.284,-1.134 0,-0.697 0,0 m -7.383,0.523 0,8.028 c 0,3.606 1.703,6.02 6.361,6.02 4.657,0 6.36,-2.414 6.36,-6.02 l 0,-8.028 c 0,-3.606 -1.703,-6.019 -6.36,-6.019 -4.658,0 -6.361,2.413 -6.361,6.019"
             style="fill:#04365f;fill-opacity:1;fill-rule:nonzero;stroke:none"
             id="path54"
             inkscape:connector-curvature="0" /></g><g
           id="g56"
           transform="translate(111.2414,50.4755)"
           style="fill:#04365f;fill-opacity:1"><path
             d="m 0,0 c 0.596,0 0.88,0.291 0.88,0.901 l 0,2.792 C 0.88,4.305 0.596,4.595 0,4.595 l -1.164,0 L -1.164,0 0,0 Z m -0.738,-4.188 -0.426,0 0,-6.195 -5.282,0 0,19.369 7.667,0 c 3.72,0 4.998,-1.773 4.998,-4.885 l 0,-3.548 c 0,-1.862 -0.54,-3.083 -1.761,-3.839 l 2.386,-7.097 -5.594,0 -1.988,6.195 z"
             style="fill:#04365f;fill-opacity:1;fill-rule:nonzero;stroke:none"
             id="path58"
             inkscape:connector-curvature="0" /></g><g
           id="g60"
           transform="translate(125.9529,47.8584)"
           style="fill:#04365f;fill-opacity:1"><path
             d="M 0,0 1.477,0 0.738,7.184 0,0 Z m 7.838,-7.766 -5.567,0 -0.369,3.432 -2.356,0 -0.341,-3.432 -5.565,0 3.748,19.37 6.702,0 3.748,-19.37 z"
             style="fill:#04365f;fill-opacity:1;fill-rule:nonzero;stroke:none"
             id="path62"
             inkscape:connector-curvature="0" /></g><g
           id="g64"
           transform="translate(136.9734,54.9834)"
           style="fill:#04365f;fill-opacity:1"><path
             d="m 0,0 -3.095,0 0,4.479 11.53,0 0,-4.479 -3.096,0 0,-14.891 -5.339,0 L 0,0 Z"
             style="fill:#04365f;fill-opacity:1;fill-rule:nonzero;stroke:none"
             id="path66"
             inkscape:connector-curvature="0" /></g><g
           id="g68"
           transform="translate(154.5818,45.2402)"
           style="fill:#04365f;fill-opacity:1"><path
             d="m 0,0 0,9.074 c 0,0.698 -0.284,1.134 -1.022,1.134 -0.739,0 -1.023,-0.436 -1.023,-1.134 l 0,-9.074 c 0,-0.697 0.284,-1.134 1.023,-1.134 C -0.284,-1.134 0,-0.697 0,0 m -7.383,0.523 0,8.028 c 0,3.606 1.703,6.02 6.361,6.02 4.657,0 6.36,-2.414 6.36,-6.02 l 0,-8.028 c 0,-3.606 -1.703,-6.019 -6.36,-6.019 -4.658,0 -6.361,2.413 -6.361,6.019"
             style="fill:#04365f;fill-opacity:1;fill-rule:nonzero;stroke:none"
             id="path70"
             inkscape:connector-curvature="0" /></g><path
           d="m 162.535,59.462 5.338,0 0,-19.369 -5.338,0 0,19.369 z"
           style="fill:#04365f;fill-opacity:1;fill-rule:nonzero;stroke:none"
           id="path72"
           inkscape:connector-curvature="0" /><g
           id="g74"
           transform="translate(177.2165,50.4755)"
           style="fill:#04365f;fill-opacity:1"><path
             d="m 0,0 c 0.597,0 0.881,0.291 0.881,0.901 l 0,2.792 C 0.881,4.305 0.597,4.595 0,4.595 l -1.164,0 L -1.164,0 0,0 Z m -0.738,-4.188 -0.426,0 0,-6.195 -5.281,0 0,19.369 7.667,0 c 3.719,0 4.997,-1.773 4.997,-4.885 l 0,-3.548 c 0,-1.862 -0.539,-3.083 -1.76,-3.839 l 2.385,-7.097 -5.594,0 -1.988,6.195 z"
             style="fill:#04365f;fill-opacity:1;fill-rule:nonzero;stroke:none"
             id="path76"
             inkscape:connector-curvature="0" /></g><g
           id="g78"
           transform="translate(186.1355,59.4619)"
           style="fill:#04365f;fill-opacity:1"><path
             d="m 0,0 10.337,0 0,-4.42 -4.998,0 0,-2.996 4.515,0 0,-4.421 -4.515,0 0,-3.111 5.025,0 0,-4.421 L 0,-19.369 0,0 Z"
             style="fill:#04365f;fill-opacity:1;fill-rule:nonzero;stroke:none"
             id="path80"
             inkscape:connector-curvature="0" /></g><g
           id="g82"
           transform="translate(47.5115,33.3857)"
           style="fill:#ea530d;fill-opacity:0.99607843"><path
             d="m 0,0 5.339,0 0,-7.562 2.13,0 0,7.562 5.338,0 0,-19.369 -5.338,0 0,7.213 -2.13,0 0,-7.213 -5.339,0 L 0,0 Z"
             style="fill:#ea530d;fill-opacity:0.99607843;fill-rule:nonzero;stroke:none"
             id="path84"
             inkscape:connector-curvature="0" /></g><g
           id="g86"
           transform="translate(63.1037,19.164)"
           style="fill:#ea530d;fill-opacity:0.99607843"><path
             d="m 0,0 0,14.222 5.339,0 0,-14.25 c 0,-0.669 0.284,-1.048 1.022,-1.048 0.738,0 1.022,0.379 1.022,1.018 l 0,14.28 5.339,0 0,-14.222 c 0,-3.257 -1.903,-5.496 -6.361,-5.496 C 1.903,-5.496 0,-3.257 0,0"
             style="fill:#ea530d;fill-opacity:0.99607843;fill-rule:nonzero;stroke:none"
             id="path88"
             inkscape:connector-curvature="0" /></g><g
           id="g90"
           transform="translate(85.0285,18.2334)"
           style="fill:#ea530d;fill-opacity:0.99607843"><path
             d="m 0,0 c 0.54,0 0.795,0.291 0.795,0.757 l 0,2.035 C 0.795,3.315 0.511,3.549 0,3.549 l -1.25,0 L -1.25,0 0,0 Z m -0.227,7.504 c 0.482,0 0.681,0.262 0.681,0.726 l 0,2.037 c 0,0.407 -0.199,0.669 -0.681,0.669 l -1.023,0 0,-3.432 1.023,0 z m -6.191,7.648 7.639,0 c 3.01,0 4.288,-1.541 4.288,-3.984 l 0,-2.007 C 5.509,7.736 5.055,6.486 3.606,5.846 5.225,5.497 6.077,4.188 6.077,2.211 l 0,-1.891 c 0,-2.762 -1.306,-4.537 -4.827,-4.537 l -7.668,0 0,19.369 z"
             style="fill:#ea530d;fill-opacity:0.99607843;fill-rule:nonzero;stroke:none"
             id="path92"
             inkscape:connector-curvature="0" /></g><g
           id="g94"
           transform="translate(93.4358,33.3857)"
           style="fill:#ea530d;fill-opacity:0.99607843"><path
             d="m 0,0 10.336,0 0,-4.42 -4.997,0 0,-2.996 4.515,0 0,-4.421 -4.515,0 0,-3.111 5.026,0 0,-4.421 L 0,-19.369 0,0 Z"
             style="fill:#ea530d;fill-opacity:0.99607843;fill-rule:nonzero;stroke:none"
             id="path96"
             inkscape:connector-curvature="0" /></g><g
           id="g98"
           transform="translate(112.7478,24.3994)"
           style="fill:#ea530d;fill-opacity:0.99607843"><path
             d="m 0,0 c 0.596,0 0.88,0.291 0.88,0.901 l 0,2.792 C 0.88,4.305 0.596,4.595 0,4.595 l -1.164,0 L -1.164,0 0,0 Z m -0.738,-4.188 -0.426,0 0,-6.195 -5.282,0 0,19.369 7.667,0 c 3.72,0 4.998,-1.773 4.998,-4.885 l 0,-3.548 c 0,-1.862 -0.54,-3.083 -1.761,-3.839 l 2.386,-7.097 -5.594,0 -1.988,6.195 z"
             style="fill:#ea530d;fill-opacity:0.99607843;fill-rule:nonzero;stroke:none"
             id="path100"
             inkscape:connector-curvature="0" /></g><g
           id="g102"
           transform="translate(123.7673,28.9072)"
           style="fill:#ea530d;fill-opacity:0.99607843"><path
             d="m 0,0 -3.095,0 0,4.479 11.53,0 0,-4.479 -3.095,0 0,-14.891 -5.34,0 L 0,0 Z"
             style="fill:#ea530d;fill-opacity:0.99607843;fill-rule:nonzero;stroke:none"
             id="path104"
             inkscape:connector-curvature="0" /></g><g
           id="g106"
           transform="translate(147.198,18.2919)"
           style="fill:#ea530d;fill-opacity:0.99607843"><path
             d="m 0,0 c 0.823,0 1.846,0.146 2.755,0.319 l 0.369,-4.478 c -1.051,-0.262 -3.238,-0.465 -4.316,-0.465 -4.175,0 -5.85,1.978 -5.85,5.816 l 0,8.434 c 0,3.84 1.675,5.817 5.85,5.817 1.078,0 3.265,-0.204 4.316,-0.465 L 2.755,10.499 C 1.846,10.674 0.823,10.818 0,10.818 c -1.222,0 -1.676,-0.523 -1.676,-1.686 l 0,-7.445 C -1.676,0.523 -1.222,0 0,0"
             style="fill:#ea530d;fill-opacity:0.99607843;fill-rule:nonzero;stroke:none"
             id="path108"
             inkscape:connector-curvature="0" /></g><g
           id="g110"
           transform="translate(152.6521,19.164)"
           style="fill:#ea530d;fill-opacity:0.99607843"><path
             d="m 0,0 0,14.222 5.339,0 0,-14.25 c 0,-0.669 0.284,-1.048 1.022,-1.048 0.739,0 1.022,0.379 1.022,1.018 l 0,14.28 5.339,0 0,-14.222 c 0,-3.257 -1.903,-5.496 -6.361,-5.496 C 1.902,-5.496 0,-3.257 0,0"
             style="fill:#ea530d;fill-opacity:0.99607843;fill-rule:nonzero;stroke:none"
             id="path112"
             inkscape:connector-curvature="0" /></g><g
           id="g114"
           transform="translate(174.6052,24.3994)"
           style="fill:#ea530d;fill-opacity:0.99607843"><path
             d="m 0,0 c 0.596,0 0.88,0.291 0.88,0.901 l 0,2.792 C 0.88,4.305 0.596,4.595 0,4.595 l -1.164,0 L -1.164,0 0,0 Z m -0.738,-4.188 -0.426,0 0,-6.195 -5.283,0 0,19.369 7.668,0 c 3.719,0 4.998,-1.773 4.998,-4.885 l 0,-3.548 c 0,-1.862 -0.54,-3.083 -1.762,-3.839 l 2.387,-7.097 -5.595,0 -1.987,6.195 z"
             style="fill:#ea530d;fill-opacity:0.99607843;fill-rule:nonzero;stroke:none"
             id="path116"
             inkscape:connector-curvature="0" /></g><path
           d="m 183.58,33.386 5.339,0 0,-19.369 -5.339,0 0,19.369 z"
           style="fill:#ea530d;fill-opacity:0.99607843;fill-rule:nonzero;stroke:none"
           id="path118"
           inkscape:connector-curvature="0" /><g
           id="g120"
           transform="translate(191.8161,33.3857)"
           style="fill:#ea530d;fill-opacity:0.99607843"><path
             d="m 0,0 10.336,0 0,-4.42 -4.997,0 0,-2.996 4.515,0 0,-4.421 -4.515,0 0,-3.111 5.026,0 0,-4.421 L 0,-19.369 0,0 Z"
             style="fill:#ea530d;fill-opacity:0.99607843;fill-rule:nonzero;stroke:none"
             id="path122"
             inkscape:connector-curvature="0" /></g><g
           id="g124"
           transform="translate(204.6814,33.3857)"
           style="fill:#ea530d;fill-opacity:0.99607843"><path
             d="m 0,0 5.226,0 3.294,-7.969 0,7.969 5.168,0 0,-19.369 -5.225,0 -3.294,7.969 0,-7.969 -5.169,0 L 0,0 Z"
             style="fill:#ea530d;fill-opacity:0.99607843;fill-rule:nonzero;stroke:none"
             id="path126"
             inkscape:connector-curvature="0" /></g></g></g></g></svg>