<?xml version="1.0" encoding="UTF-8" standalone="no"?>
<!-- Created with Inkscape (http://www.inkscape.org/) -->

<svg
   xmlns:dc="http://purl.org/dc/elements/1.1/"
   xmlns:cc="http://creativecommons.org/ns#"
   xmlns:rdf="http://www.w3.org/1999/02/22-rdf-syntax-ns#"
   xmlns:svg="http://www.w3.org/2000/svg"
   xmlns="http://www.w3.org/2000/svg"
   xmlns:sodipodi="http://sodipodi.sourceforge.net/DTD/sodipodi-0.dtd"
   xmlns:inkscape="http://www.inkscape.org/namespaces/inkscape"
   id="svg2"
   version="1.1"
   inkscape:version="0.91 r"
   xml:space="preserve"
   width="91.936417"
   height="53.311916"
   viewBox="0 0 91.936417 53.311916"
   sodipodi:docname="landmarks2.svg"><metadata
     id="metadata8"><rdf:RDF><cc:Work
         rdf:about=""><dc:format>image/svg+xml</dc:format><dc:type
           rdf:resource="http://purl.org/dc/dcmitype/StillImage" /><dc:title /></cc:Work></rdf:RDF></metadata><defs
     id="defs6" /><sodipodi:namedview
     pagecolor="#ffffff"
     bordercolor="#666666"
     borderopacity="1"
     objecttolerance="10"
     gridtolerance="10"
     guidetolerance="10"
     inkscape:pageopacity="0"
     inkscape:pageshadow="2"
     inkscape:window-width="1600"
     inkscape:window-height="848"
     id="namedview4"
     showgrid="false"
     inkscape:zoom="7.5704496"
     inkscape:cx="15.653232"
     inkscape:cy="46.742004"
     inkscape:window-x="0"
     inkscape:window-y="0"
     inkscape:window-maximized="1"
     inkscape:current-layer="g12" /><g
     id="g10"
     inkscape:groupmode="layer"
     inkscape:label=",,lm2"
     transform="matrix(1.25,0,0,-1.25,0,53.311915)"><g
       id="g12"><g
         id="g14"
         transform="matrix(1,0,0,-1,0,42.649532)"><path
           d="m 0.207,0.207 73.137,0 0,42.234 -73.137,0 0,-42.234 z"
           style="fill:none;stroke:#131212;stroke-width:0.41242999;stroke-linecap:round;stroke-linejoin:round;stroke-miterlimit:10;stroke-dasharray:none;stroke-opacity:1"
           id="path16"
           inkscape:connector-curvature="0" /></g><path
         d="m 7.652,36.997 2.668,0 0,-2.668 -2.668,0 0,2.668 z"
         style="fill:#ed2027;fill-opacity:1;fill-rule:nonzero;stroke:none"
         id="path18"
         inkscape:connector-curvature="0" /><path
         d="m 13.434,34.775 2.668,0 0,-2.668 -2.668,0 0,2.668 z"
         style="fill:#ed2027;fill-opacity:1;fill-rule:nonzero;stroke:none"
         id="path20"
         inkscape:connector-curvature="0" /><path
         d="m 5.43,30.771 2.668,0 0,-2.664 -2.668,0 0,2.664 z"
         style="fill:#ed2027;fill-opacity:1;fill-rule:nonzero;stroke:none"
         id="path22"
         inkscape:connector-curvature="0" /><path
         d="m 10.098,30.771 2.668,0 0,-2.664 -2.668,0 0,2.664 z"
         style="fill:#ed2027;fill-opacity:1;fill-rule:nonzero;stroke:none"
         id="path24"
         inkscape:connector-curvature="0" /><path
         d="m 13.434,26.771 2.668,0 0,-2.668 -2.668,0 0,2.668 z"
         style="fill:#ed2027;fill-opacity:1;fill-rule:nonzero;stroke:none"
         id="path26"
         inkscape:connector-curvature="0" /><path
         d="m 18.77,30.771 2.668,0 0,-2.664 -2.668,0 0,2.664 z"
         style="fill:#008000;fill-opacity:1;fill-rule:nonzero;stroke:none"
         id="path28"
         inkscape:connector-curvature="0" /><path
         d="m 18.77,25.88 2.668,0 0,-2.664 -2.668,0 0,2.664 z"
         style="fill:#008000;fill-opacity:1;fill-rule:nonzero;stroke:none"
         id="path30"
         inkscape:connector-curvature="0" /><path
         d="m 22.992,26.771 2.668,0 0,-2.668 -2.668,0 0,2.668 z"
         style="fill:#008000;fill-opacity:1;fill-rule:nonzero;stroke:none"
         id="path32"
         inkscape:connector-curvature="0" /><path
         d="m 27.438,32.775 2.668,0 0,-2.668 -2.668,0 0,2.668 z"
         style="fill:#008000;fill-opacity:1;fill-rule:nonzero;stroke:none"
         id="path34"
         inkscape:connector-curvature="0" /><path
         d="m 32.105,32.775 2.668,0 0,-2.668 -2.668,0 0,2.668 z"
         style="fill:#008000;fill-opacity:1;fill-rule:nonzero;stroke:none"
         id="path36"
         inkscape:connector-curvature="0" /><path
         d="m 24.992,36.997 2.668,0 0,-2.668 -2.668,0 0,2.668 z"
         style="fill:#008000;fill-opacity:1;fill-rule:nonzero;stroke:none"
         id="path38"
         inkscape:connector-curvature="0" /><path
         d="m 29.215,39.443 2.668,0 0,-2.668 -2.668,0 0,2.668 z"
         style="fill:#008000;fill-opacity:1;fill-rule:nonzero;stroke:none"
         id="path40"
         inkscape:connector-curvature="0" /><path
         d="m 33.441,40.333 2.668,0 0,-2.668 -2.668,0 0,2.668 z"
         style="fill:#008000;fill-opacity:1;fill-rule:nonzero;stroke:none"
         id="path42"
         inkscape:connector-curvature="0" /><path
         d="m 55.227,23.771 0.496,-1.614 1.617,0 -1.305,-0.996 0.496,-1.613 -1.304,0.996 -1.309,-0.996 0.5,1.613 -1.309,0.996 1.618,0 0.5,1.614"
         style="fill:#ed2027;fill-opacity:1;fill-rule:nonzero;stroke:none"
         id="path44"
         inkscape:connector-curvature="0" /><path
         d="m 49.891,17.435 0.5,-1.614 1.613,0 -1.305,-0.996 0.496,-1.613 -1.304,0.996 -1.305,-0.996 0.496,1.613 -1.305,0.996 1.614,0 0.5,1.614"
         style="fill:#ed2027;fill-opacity:1;fill-rule:nonzero;stroke:none"
         id="path46"
         inkscape:connector-curvature="0" /><path
         d="m 56.336,12.767 0.5,-1.614 1.617,0 -1.308,-0.996 0.5,-1.613 -1.309,0.996 -1.305,-0.996 0.496,1.613 -1.304,0.996 1.617,0 0.496,1.614"
         style="fill:#ed2027;fill-opacity:1;fill-rule:nonzero;stroke:none"
         id="path48"
         inkscape:connector-curvature="0" /><path
         d="m 61.227,12.767 0.5,-1.614 1.617,0 -1.309,-0.996 0.5,-1.613 -1.308,0.996 -1.305,-0.996 0.5,1.613 -1.309,0.996 1.614,0 0.5,1.614"
         style="fill:#ed2027;fill-opacity:1;fill-rule:nonzero;stroke:none"
         id="path50"
         inkscape:connector-curvature="0" /><path
         d="m 61.227,19.88 0.5,-1.613 1.617,0 -1.309,-0.996 0.5,-1.614 -1.308,0.996 -1.305,-0.996 0.5,1.614 -1.309,0.996 1.614,0 0.5,1.613"
         style="fill:#ed2027;fill-opacity:1;fill-rule:nonzero;stroke:none"
         id="path52"
         inkscape:connector-curvature="0" /><path
         d="m 61.004,36.775 0.5,-1.614 1.617,0 -1.309,-0.996 0.5,-1.613 -1.308,0.996 -1.305,-0.996 0.5,1.613 -1.308,0.996 1.617,0 0.496,1.614"
         style="fill:#008000;fill-opacity:1;fill-rule:nonzero;stroke:none"
         id="path54"
         inkscape:connector-curvature="0" /><path
         d="m 64.117,25.884 0.5,-1.613 1.613,0 -1.304,-1 0.5,-1.614 -1.309,1 -1.305,-1 0.497,1.614 -1.305,1 1.613,0 0.5,1.613"
         style="fill:#008000;fill-opacity:1;fill-rule:nonzero;stroke:none"
         id="path56"
         inkscape:connector-curvature="0" /><path
         d="m 59.672,27.771 0.5,-1.614 1.613,0 -1.305,-0.996 0.497,-1.613 -1.305,1 -1.309,-1 0.5,1.613 -1.304,0.996 1.613,0 0.5,1.614"
         style="fill:#008000;fill-opacity:1;fill-rule:nonzero;stroke:none"
         id="path58"
         inkscape:connector-curvature="0" /><path
         d="m 68.562,30.771 0.5,-1.61 1.614,0 -1.305,-0.996 0.5,-1.613 -1.309,0.996 -1.304,-0.996 0.5,1.613 -1.309,0.996 1.613,0 0.5,1.61"
         style="fill:#008000;fill-opacity:1;fill-rule:nonzero;stroke:none"
         id="path60"
         inkscape:connector-curvature="0" /><path
         d="m 68.562,36.997 0.5,-1.613 1.614,0 -1.305,-0.996 0.5,-1.613 -1.309,0.996 -1.304,-0.996 0.5,1.613 -1.309,0.996 1.613,0 0.5,1.613"
         style="fill:#008000;fill-opacity:1;fill-rule:nonzero;stroke:none"
         id="path62"
         inkscape:connector-curvature="0" /><path
         d="m 63.227,41.333 0.5,-1.613 1.617,0 -1.309,-0.996 0.5,-1.614 -1.308,0.997 -1.305,-0.997 0.5,1.614 -1.309,0.996 1.617,0 0.497,1.613"
         style="fill:#008000;fill-opacity:1;fill-rule:nonzero;stroke:none"
         id="path64"
         inkscape:connector-curvature="0" /><path
         d="m 7.707,13.044 c 0.52,-0.523 0.52,-1.367 0,-1.887 -0.519,-0.523 -1.363,-0.523 -1.887,0 -0.519,0.52 -0.519,1.364 0,1.887 0.524,0.52 1.368,0.52 1.887,0"
         style="fill:#ed2027;fill-opacity:1;fill-rule:nonzero;stroke:none"
         id="path66"
         inkscape:connector-curvature="0" /><path
         d="m 10.82,7.708 c 0.52,-0.519 0.52,-1.367 0,-1.887 -0.523,-0.519 -1.367,-0.519 -1.886,0 -0.52,0.52 -0.52,1.368 0,1.887 0.519,0.52 1.363,0.52 1.886,0"
         style="fill:#ed2027;fill-opacity:1;fill-rule:nonzero;stroke:none"
         id="path68"
         inkscape:connector-curvature="0" /><path
         d="m 14.375,12.376 c 0.523,-0.519 0.523,-1.367 0,-1.887 -0.52,-0.519 -1.363,-0.519 -1.887,0 -0.519,0.52 -0.519,1.368 0,1.887 0.524,0.52 1.367,0.52 1.887,0"
         style="fill:#ed2027;fill-opacity:1;fill-rule:nonzero;stroke:none"
         id="path70"
         inkscape:connector-curvature="0" /><path
         d="m 15.711,8.595 c 0.519,-0.52 0.519,-1.363 0,-1.883 -0.523,-0.523 -1.367,-0.523 -1.887,0 -0.519,0.52 -0.519,1.363 0,1.883 0.52,0.523 1.364,0.523 1.887,0"
         style="fill:#ed2027;fill-opacity:1;fill-rule:nonzero;stroke:none"
         id="path72"
         inkscape:connector-curvature="0" /><path
         d="m 17.711,4.818 c 0.519,-0.52 0.519,-1.368 0,-1.887 -0.52,-0.52 -1.367,-0.52 -1.887,0 -0.519,0.519 -0.519,1.367 0,1.887 0.52,0.519 1.367,0.519 1.887,0"
         style="fill:#008000;fill-opacity:1;fill-rule:nonzero;stroke:none"
         id="path74"
         inkscape:connector-curvature="0" /><path
         d="m 21.047,3.927 c 0.519,-0.52 0.519,-1.363 0,-1.883 -0.524,-0.523 -1.367,-0.523 -1.887,0 -0.523,0.52 -0.523,1.363 0,1.883 0.52,0.523 1.363,0.523 1.887,0"
         style="fill:#008000;fill-opacity:1;fill-rule:nonzero;stroke:none"
         id="path76"
         inkscape:connector-curvature="0" /><path
         d="m 27.27,3.927 c 0.519,-0.52 0.519,-1.363 0,-1.883 -0.52,-0.523 -1.368,-0.523 -1.887,0 -0.52,0.52 -0.52,1.363 0,1.883 0.519,0.523 1.367,0.523 1.887,0"
         style="fill:#008000;fill-opacity:1;fill-rule:nonzero;stroke:none"
         id="path78"
         inkscape:connector-curvature="0" /><path
         d="m 23.047,8.595 c 0.519,-0.52 0.519,-1.363 0,-1.883 -0.524,-0.523 -1.367,-0.523 -1.887,0 -0.519,0.52 -0.519,1.363 0,1.883 0.52,0.523 1.363,0.523 1.887,0"
         style="fill:#008000;fill-opacity:1;fill-rule:nonzero;stroke:none"
         id="path80"
         inkscape:connector-curvature="0" /><path
         d="m 21.047,12.376 c 0.519,-0.519 0.519,-1.367 0,-1.887 -0.524,-0.519 -1.367,-0.519 -1.887,0 -0.523,0.52 -0.523,1.368 0,1.887 0.52,0.52 1.363,0.52 1.887,0"
         style="fill:#008000;fill-opacity:1;fill-rule:nonzero;stroke:none"
         id="path82"
         inkscape:connector-curvature="0" /><path
         d="m 27.27,10.376 c 0.519,-0.523 0.519,-1.367 0,-1.887 -0.52,-0.519 -1.368,-0.519 -1.887,0 -0.52,0.52 -0.52,1.364 0,1.887 0.519,0.52 1.367,0.52 1.887,0"
         style="fill:#008000;fill-opacity:1;fill-rule:nonzero;stroke:none"
         id="path84"
         inkscape:connector-curvature="0" /><path
         d="m 34.383,13.044 c 0.519,-0.523 0.519,-1.367 0,-1.887 -0.52,-0.523 -1.363,-0.523 -1.887,0 -0.519,0.52 -0.519,1.364 0,1.887 0.524,0.52 1.367,0.52 1.887,0"
         style="fill:#008000;fill-opacity:1;fill-rule:nonzero;stroke:none"
         id="path86"
         inkscape:connector-curvature="0" /><path
         d="m 33.496,8.595 c 0.52,-0.52 0.52,-1.363 0,-1.883 -0.523,-0.523 -1.367,-0.523 -1.891,0 -0.519,0.52 -0.519,1.363 0,1.883 0.524,0.523 1.368,0.523 1.891,0"
         style="fill:#008000;fill-opacity:1;fill-rule:nonzero;stroke:none"
         id="path88"
         inkscape:connector-curvature="0" /><path
         d="m 29.715,15.044 c 0.519,-0.523 0.519,-1.367 0,-1.887 -0.52,-0.519 -1.363,-0.519 -1.887,0 -0.519,0.52 -0.519,1.364 0,1.887 0.524,0.52 1.367,0.52 1.887,0"
         style="fill:#008000;fill-opacity:1;fill-rule:nonzero;stroke:none"
         id="path90"
         inkscape:connector-curvature="0" /><g
         id="g92"
         transform="matrix(1,0,0,-1,0,42.649532)"
         style="stroke:#4256af;stroke-opacity:1"><path
           d="m 65.285,13.098 c 2.215,2.117 2.215,5.547 0,7.664 -2.211,2.117 -5.801,2.117 -8.015,0 -2.211,-2.117 -2.211,-5.547 0,-7.664 2.214,-2.118 5.804,-2.118 8.015,0 M 27.051,28.965 c 2.215,2.117 2.215,5.547 0,7.664 -2.211,2.113 -5.801,2.113 -8.016,0 -2.215,-2.117 -2.215,-5.547 0,-7.664 2.215,-2.117 5.805,-2.117 8.016,0 m -1,-17.199 c 2.215,2.113 2.215,5.546 0,7.66 -2.211,2.117 -5.805,2.117 -8.016,0 -2.215,-2.114 -2.215,-5.547 0,-7.66 2.211,-2.118 5.805,-2.118 8.016,0"
           style="fill:none;stroke:#4256af;stroke-width:1.23729002;stroke-linecap:round;stroke-linejoin:round;stroke-miterlimit:10;stroke-dasharray:4.94916, 4.94916000000000000;stroke-dashoffset:0;stroke-opacity:1"
           id="path94"
           inkscape:connector-curvature="0" /></g></g></g></svg>