<?xml version="1.0" encoding="UTF-8" standalone="no"?>
<!-- Created with Inkscape (http://www.inkscape.org/) -->

<svg
   xmlns:dc="http://purl.org/dc/elements/1.1/"
   xmlns:cc="http://creativecommons.org/ns#"
   xmlns:rdf="http://www.w3.org/1999/02/22-rdf-syntax-ns#"
   xmlns:svg="http://www.w3.org/2000/svg"
   xmlns="http://www.w3.org/2000/svg"
   xmlns:sodipodi="http://sodipodi.sourceforge.net/DTD/sodipodi-0.dtd"
   xmlns:inkscape="http://www.inkscape.org/namespaces/inkscape"
   id="svg2"
   version="1.1"
   inkscape:version="0.48.3.1 r9886"
   width="956.99997"
   height="810"
   xml:space="preserve"
   sodipodi:docname="intro_poster.pdf"><metadata
     id="metadata8"><rdf:RDF><cc:Work
         rdf:about=""><dc:format>image/svg+xml</dc:format><dc:type
           rdf:resource="http://purl.org/dc/dcmitype/StillImage" /><dc:title></dc:title></cc:Work></rdf:RDF></metadata><defs
     id="defs6" /><sodipodi:namedview
     pagecolor="#ffffff"
     bordercolor="#666666"
     borderopacity="1"
     objecttolerance="10"
     gridtolerance="10"
     guidetolerance="10"
     inkscape:pageopacity="0"
     inkscape:pageshadow="2"
     inkscape:window-width="640"
     inkscape:window-height="480"
     id="namedview4"
     showgrid="false"
     inkscape:zoom="0.20602124"
     inkscape:cx="502.48596"
     inkscape:cy="337.95791"
     inkscape:window-x="0"
     inkscape:window-y="27"
     inkscape:window-maximized="0"
     inkscape:current-layer="g10" /><g
     id="g10"
     inkscape:groupmode="layer"
     inkscape:label="intro_poster"
     transform="matrix(1.25,0,0,-1.25,0,810)"><g
       id="g12"><g
         id="g14"
         transform="matrix(1,0,0,-1,0,648)"><path
           d="m 316.141,393.566 276.574,0 0,94.856 -276.574,0 0,-94.856 z"
           style="fill:none;stroke:#ff0000;stroke-opacity:1;stroke-width:1.6;stroke-linecap:round;stroke-linejoin:round;stroke-miterlimit:4;stroke-dasharray:none"
           id="path16" /></g><text
         transform="matrix(1,0,0,-1,365.09107,221.62766)"
         id="text18"><tspan
           style="fill:#ff0000;fill-opacity:1;fill-rule:nonzero;stroke:none;font-family:Bitstream Charter;font-variant:normal;font-weight:normal;font-size:32;writing-mode:lr;-inkscape-font-specification:BitstreamVeraSans"
           x="0 23.392 43.68 52.544 72.192 92.48 112.096 120.96 140.576 160.864"
           y="0"
           sodipodi:role="line"
           id="tspan20">Unlabeled </tspan><tspan
           style="fill:#ff0000;fill-opacity:1;fill-rule:nonzero;stroke:none;font-family:Bitstream Charter;font-variant:normal;font-weight:normal;font-size:32;writing-mode:lr;-inkscape-font-specification:BitstreamVeraSans"
           x="-41.59376 -21.24176 -1.59376 29.54224 49.83024 58.66224 78.27824 88.45424 104.51824 116.99824 136.55024 167.65424"
           y="40"
           sodipodi:role="line"
           id="tspan22">Sample From </tspan></text>
<text
         transform="matrix(1,0,0,-1,543.12232,181.62766)"
         id="text24"><tspan
           style="fill:#ff7f2a;fill-opacity:1;fill-rule:nonzero;stroke:none;font-family:Bitstream Charter;font-variant:normal;font-weight:normal;font-size:32;writing-mode:lr;-inkscape-font-specification:BitstreamVeraSansOblique"
           x="0"
           y="0"
           id="tspan26">D</tspan></text>
<g
         id="g28"
         transform="matrix(1,0,0,-1,0,648)"><path
           d="m 450.312,488.652 1.145,64"
           style="fill:none;stroke:#ff0000;stroke-opacity:1;stroke-width:2.24;stroke-linecap:butt;stroke-linejoin:miter;stroke-miterlimit:11.1;stroke-dasharray:none"
           id="path30" /></g><path
         d="m 460.965,119.469 -9.418,-27.094 -10.375,26.738 c 5.918,-4.195 13.914,-4.027 19.793,0.356 z"
         style="fill:#000000;fill-opacity:1;fill-rule:evenodd;stroke:none"
         id="path32" /><text
         transform="matrix(1,0,0,-1,479.55983,368.34972)"
         id="text34"><tspan
           style="fill:#ff0000;fill-opacity:1;fill-rule:nonzero;stroke:none;font-family:Bitstream Charter;font-variant:normal;font-weight:normal;font-size:25.6;writing-mode:lr;-inkscape-font-specification:BitstreamVeraSansBold"
           x="0 21.248 38.8352 65.5104 82.7392 91.52 109.7472 118.656 138.4192 156.7488 173.9776 192.3072 204.5696 221.7984 234.0352 242.816 260.6500096"
           y="0"
           sodipodi:role="line"
           id="tspan36">Domain Adaptation</tspan></text>
<g
         id="g38"
         transform="matrix(1,0,0,-1,0,648)"><path
           d="m 9.172,136.195 265.14,0 0,92.571 -265.14,0 0,-92.571 z"
           style="fill:none;stroke:#000000;stroke-opacity:1;stroke-width:0.8;stroke-linecap:round;stroke-linejoin:round;stroke-miterlimit:4;stroke-dasharray:none"
           id="path40" /></g><text
         transform="matrix(1,0,0,-1,67.522321,477.85623)"
         id="text42"><tspan
           style="fill:#000000;fill-opacity:1;fill-rule:nonzero;stroke:none;font-family:Bitstream Charter;font-variant:normal;font-weight:normal;font-size:32;writing-mode:lr;-inkscape-font-specification:BitstreamVeraSans"
           x="0 17.824 37.472 57.76 77.376 86.24 105.856"
           y="0"
           sodipodi:role="line"
           id="tspan44">Labeled</tspan><tspan
           style="fill:#000000;fill-opacity:1;fill-rule:nonzero;stroke:none;font-family:Bitstream Charter;font-variant:normal;font-weight:normal;font-size:32;writing-mode:lr;-inkscape-font-specification:BitstreamVeraSans"
           x="-61.437504 -51.293504 -30.941504 -11.261504 19.842496 40.130496 48.994496 68.610496 78.754496 94.818496 107.330496 126.850496 157.986496"
           y="40"
           sodipodi:role="line"
           id="tspan46"> Sample From </tspan></text>
<text
         transform="matrix(1,0,0,-1,235.89732,437.85623)"
         id="text48"><tspan
           style="fill:#008000;fill-opacity:1;fill-rule:nonzero;stroke:none;font-family:Bitstream Charter;font-variant:normal;font-weight:normal;font-size:32;writing-mode:lr;-inkscape-font-specification:BitstreamVeraSansOblique"
           x="0"
           y="0"
           id="tspan50">P</tspan></text>
<text
         transform="matrix(1,0,0,-1,643.94463,471.57676)"
         id="text52"><tspan
           style="fill:#000000;fill-opacity:1;fill-rule:nonzero;stroke:none;font-family:Bitstream Charter;font-variant:normal;font-weight:normal;font-size:32;writing-mode:lr;-inkscape-font-specification:BitstreamVeraSans"
           x="0 27.552 47.072 67.36 86.976"
           y="0"
           sodipodi:role="line"
           id="tspan54">Model</tspan></text>
<g
         id="g56"
         transform="matrix(1,0,0,-1,0,648)"><path
           d="m 275.457,170.48 98.285,1.145"
           style="fill:none;stroke:#000000;stroke-opacity:1;stroke-width:2.24;stroke-linecap:butt;stroke-linejoin:miter;stroke-miterlimit:11.1;stroke-dasharray:none"
           id="path58" /></g><path
         d="m 349.914,486.594 26.805,-10.211 -27.035,-9.586 c 4.367,5.793 4.433,13.789 0.23,19.797 z"
         style="fill:#000000;fill-opacity:1;fill-rule:evenodd;stroke:none"
         id="path60" /><g
         id="g62"
         transform="matrix(1,0,0,-1,0,648)"><path
           d="m 632.258,147.168 121.14,0 0,34.285 -121.14,0 0,-34.285 z"
           style="fill:none;stroke:#000000;stroke-opacity:1;stroke-width:0.8;stroke-linecap:round;stroke-linejoin:round;stroke-miterlimit:11.1;stroke-dasharray:none"
           id="path64" /></g><text
         transform="matrix(1,0,0,-1,386.75626,472.94817)"
         id="text66"><tspan
           style="fill:#000000;fill-opacity:1;fill-rule:nonzero;stroke:none;font-family:Bitstream Charter;font-variant:normal;font-weight:normal;font-size:32;writing-mode:lr;-inkscape-font-specification:BitstreamVeraSans"
           x="0 17.248 36.864 56.512 69.152 89.44 98.272 118.56"
           y="0"
           sodipodi:role="line"
           id="tspan68">Learning</tspan></text>
<g
         id="g70"
         transform="matrix(1,0,0,-1,0,648)"><path
           d="m 377.629,148.309 154.285,0 0,35.429 -154.285,0 0,-35.429 z"
           style="fill:none;stroke:#000000;stroke-opacity:1;stroke-width:0.8;stroke-linecap:round;stroke-linejoin:round;stroke-miterlimit:11.1;stroke-dasharray:none"
           id="path72" /></g><text
         transform="matrix(1,0,0,-1,593.73124,619.32112)"
         id="text74"><tspan
           style="fill:#000000;fill-opacity:1;fill-rule:nonzero;stroke:none;font-family:Bitstream Charter;font-variant:normal;font-weight:normal;font-size:25.6;writing-mode:lr;-inkscape-font-specification:BitstreamVeraSansBold"
           x="0 18.4832 36.7104 55.04 72.3968 85.0432 101.7088 110.4896 125.696 143.0272 161.3568"
           y="0"
           sodipodi:role="line"
           id="tspan76">Supervised </tspan><tspan
           style="fill:#000000;fill-opacity:1;fill-rule:nonzero;stroke:none;font-family:Bitstream Charter;font-variant:normal;font-weight:normal;font-size:25.6;writing-mode:lr;-inkscape-font-specification:BitstreamVeraSansBold"
           x="-31.8000128 -13.0608128 -4.2800128 12.9487872 28.1295872 43.3359872 52.1167872 63.2527872 72.0335872 87.2143872 104.4431872 116.7055872 125.4863872 143.0735872"
           y="32"
           sodipodi:role="line"
           id="tspan78">Classification</tspan></text>
<g
         id="g80"
         transform="matrix(1,0,0,-1,0,648)"><path
           d="m 1.914,0.801 762.285,0 0,240 -762.285,0 0,-240 z"
           style="fill:none;stroke:#000000;stroke-opacity:1;stroke-width:1.6;stroke-linecap:round;stroke-linejoin:round;stroke-miterlimit:4;stroke-dasharray:1.6,9.6;stroke-dashoffset:0"
           id="path82" /></g><text
         transform="matrix(1,0,0,-1,23.893749,594.8848)"
         id="text84"><tspan
           style="fill:#000000;fill-opacity:1;fill-rule:nonzero;stroke:none;font-family:Bitstream Charter;font-variant:normal;font-weight:normal;font-size:32;writing-mode:lr;-inkscape-font-specification:BitstreamVeraSans"
           x="0 24.64 33.472 50.144 62.688 75.872 84.704 104.992 125.28 137.856 146.688 166.24 186.528"
           y="0"
           sodipodi:role="line"
           id="tspan86">Distribution </tspan></text>
<text
         transform="matrix(1,0,0,-1,220.83125,594.8848)"
         id="text88"><tspan
           style="fill:#008000;fill-opacity:1;fill-rule:nonzero;stroke:none;font-family:Bitstream Charter;font-variant:normal;font-weight:normal;font-size:32;writing-mode:lr;-inkscape-font-specification:BitstreamVeraSansOblique"
           x="0"
           y="0"
           id="tspan90">P</tspan></text>
<text
         transform="matrix(1,0,0,-1,250.48482,430.28567)"
         id="text92"><tspan
           style="fill:#008000;fill-opacity:1;fill-rule:nonzero;stroke:none;font-family:Bitstream Charter;font-variant:normal;font-weight:normal;font-size:20.8;writing-mode:lr;-inkscape-font-specification:BitstreamVeraSansOblique"
           x="0"
           y="0"
           id="tspan94">S</tspan><tspan
           style="fill:#008000;fill-opacity:1;fill-rule:nonzero;stroke:none;font-family:Bitstream Charter;font-variant:normal;font-weight:normal;font-size:20.8;writing-mode:lr;-inkscape-font-specification:BitstreamVeraSansOblique"
           x="-12.342886"
           y="-156.80003"
           id="tspan96">S</tspan></text>
<g
         id="g98"
         transform="matrix(1,0,0,-1,0,648)"><path
           d="m 531.457,166.367 98.285,1.141"
           style="fill:none;stroke:#000000;stroke-opacity:1;stroke-width:2.24;stroke-linecap:butt;stroke-linejoin:miter;stroke-miterlimit:11.1;stroke-dasharray:none"
           id="path100" /></g><path
         d="m 605.914,490.707 26.805,-10.211 -27.035,-9.586 c 4.367,5.793 4.433,13.789 0.23,19.797 z"
         style="fill:#000000;fill-opacity:1;fill-rule:evenodd;stroke:none"
         id="path102" /><g
         id="g104"
         transform="matrix(1,0,0,-1,0,648)"><path
           d="M 260.621,40.344 C 718.91,47.199 697.195,143.199 697.195,143.199"
           style="fill:none;stroke:#000000;stroke-opacity:1;stroke-width:2.24;stroke-linecap:butt;stroke-linejoin:miter;stroke-miterlimit:4;stroke-dasharray:2.24,2.24;stroke-dashoffset:0"
           id="path106" /></g><path
         d="m 284.418,597.359 -26.77,10.305 27.067,9.492 c -4.387,-5.777 -4.485,-13.773 -0.297,-19.797 z"
         style="fill:#000000;fill-opacity:1;fill-rule:evenodd;stroke:none"
         id="path108" /><g
         id="g110"
         transform="matrix(1,0,0,-1,0,648)"><path
           d="m 5.742,541.91 265.145,0 0,92.57 -265.145,0 0,-92.57 z"
           style="fill:none;stroke:#000000;stroke-opacity:1;stroke-width:0.8;stroke-linecap:round;stroke-linejoin:round;stroke-miterlimit:4;stroke-dasharray:none"
           id="path112" /></g><text
         transform="matrix(1,0,0,-1,64.09375,72.141944)"
         id="text114"><tspan
           style="fill:#000000;fill-opacity:1;fill-rule:nonzero;stroke:none;font-family:Bitstream Charter;font-variant:normal;font-weight:normal;font-size:32;writing-mode:lr;-inkscape-font-specification:BitstreamVeraSans"
           x="0 17.824 37.472 57.76 77.376 86.24 105.856"
           y="0"
           sodipodi:role="line"
           id="tspan116">Labeled</tspan><tspan
           style="fill:#000000;fill-opacity:1;fill-rule:nonzero;stroke:none;font-family:Bitstream Charter;font-variant:normal;font-weight:normal;font-size:32;writing-mode:lr;-inkscape-font-specification:BitstreamVeraSans"
           x="-61.437504 -51.293504 -30.941504 -11.261504 19.842496 40.130496 48.994496 68.610496 78.754496 94.818496 107.330496 126.850496 157.986496"
           y="40"
           sodipodi:role="line"
           id="tspan118"> Sample From </tspan></text>
<text
         transform="matrix(1,0,0,-1,232.46875,32.141944)"
         id="text120"><tspan
           style="fill:#008000;fill-opacity:1;fill-rule:nonzero;stroke:none;font-family:Bitstream Charter;font-variant:normal;font-weight:normal;font-size:32;writing-mode:lr;-inkscape-font-specification:BitstreamVeraSansOblique"
           x="0"
           y="0"
           id="tspan122">P</tspan></text>
<text
         transform="matrix(1,0,0,-1,640.51607,65.862487)"
         id="text124"><tspan
           style="fill:#000000;fill-opacity:1;fill-rule:nonzero;stroke:none;font-family:Bitstream Charter;font-variant:normal;font-weight:normal;font-size:32;writing-mode:lr;-inkscape-font-specification:BitstreamVeraSans"
           x="0 27.552 47.072 67.36 86.976"
           y="0"
           sodipodi:role="line"
           id="tspan126">Model</tspan></text>
<g
         id="g128"
         transform="matrix(1,0,0,-1,0,648)"><path
           d="m 272.027,576.195 98.285,1.141"
           style="fill:none;stroke:#000000;stroke-opacity:1;stroke-width:2.24;stroke-linecap:butt;stroke-linejoin:miter;stroke-miterlimit:11.1;stroke-dasharray:none"
           id="path130" /></g><path
         d="m 346.484,80.879 26.805,-10.211 -27.035,-9.586 c 4.367,5.793 4.437,13.789 0.23,19.797 z"
         style="fill:#000000;fill-opacity:1;fill-rule:evenodd;stroke:none"
         id="path132" /><g
         id="g134"
         transform="matrix(1,0,0,-1,0,648)"><path
           d="m 628.828,552.879 121.141,0 0,34.289 -121.141,0 0,-34.289 z"
           style="fill:none;stroke:#000000;stroke-opacity:1;stroke-width:0.8;stroke-linecap:round;stroke-linejoin:round;stroke-miterlimit:11.1;stroke-dasharray:none"
           id="path136" /></g><text
         transform="matrix(1,0,0,-1,383.32772,67.233874)"
         id="text138"><tspan
           style="fill:#000000;fill-opacity:1;fill-rule:nonzero;stroke:none;font-family:Bitstream Charter;font-variant:normal;font-weight:normal;font-size:32;writing-mode:lr;-inkscape-font-specification:BitstreamVeraSans"
           x="0 17.248 36.864 56.512 69.152 89.44 98.272 118.56"
           y="0"
           sodipodi:role="line"
           id="tspan140">Learning</tspan></text>
<g
         id="g142"
         transform="matrix(1,0,0,-1,0,648)"><path
           d="m 374.199,554.023 154.285,0 0,35.43 -154.285,0 0,-35.43 z"
           style="fill:none;stroke:#000000;stroke-opacity:1;stroke-width:0.8;stroke-linecap:round;stroke-linejoin:round;stroke-miterlimit:11.1;stroke-dasharray:none"
           id="path144" /></g><text
         transform="matrix(1,0,0,-1,19.322324,185.74194)"
         id="text146"><tspan
           style="fill:#000000;fill-opacity:1;fill-rule:nonzero;stroke:none;font-family:Bitstream Charter;font-variant:normal;font-weight:normal;font-size:32;writing-mode:lr;-inkscape-font-specification:BitstreamVeraSans"
           x="0 24.64 33.472 50.144 62.688 75.872 84.704 104.992 125.28 137.856 146.688 166.24 186.528"
           y="0"
           sodipodi:role="line"
           id="tspan148">Distribution </tspan></text>
<text
         transform="matrix(1,0,0,-1,216.25982,185.74194)"
         id="text150"><tspan
           style="fill:#008000;fill-opacity:1;fill-rule:nonzero;stroke:none;font-family:Bitstream Charter;font-variant:normal;font-weight:normal;font-size:32;writing-mode:lr;-inkscape-font-specification:BitstreamVeraSansOblique"
           x="0"
           y="0"
           id="tspan152">P</tspan></text>
<text
         transform="matrix(1,0,0,-1,247.05624,24.571386)"
         id="text154"><tspan
           style="fill:#008000;fill-opacity:1;fill-rule:nonzero;stroke:none;font-family:Bitstream Charter;font-variant:normal;font-weight:normal;font-size:20.8;writing-mode:lr;-inkscape-font-specification:BitstreamVeraSansOblique"
           x="0"
           y="0"
           id="tspan156">S</tspan><tspan
           style="fill:#008000;fill-opacity:1;fill-rule:nonzero;stroke:none;font-family:Bitstream Charter;font-variant:normal;font-weight:normal;font-size:20.8;writing-mode:lr;-inkscape-font-specification:BitstreamVeraSansOblique"
           x="-13.485722"
           y="-153.37144"
           id="tspan158">S</tspan></text>
<g
         id="g160"
         transform="matrix(1,0,0,-1,0,648)"><path
           d="m 528.027,572.082 98.285,1.141"
           style="fill:none;stroke:#000000;stroke-opacity:1;stroke-width:2.24;stroke-linecap:butt;stroke-linejoin:miter;stroke-miterlimit:11.1;stroke-dasharray:none"
           id="path162" /></g><path
         d="m 602.484,84.992 26.805,-10.211 -27.035,-9.586 c 4.367,5.793 4.437,13.793 0.23,19.797 z"
         style="fill:#000000;fill-opacity:1;fill-rule:evenodd;stroke:none"
         id="path164" /><g
         id="g166"
         transform="matrix(1,0,0,-1,0,648)"><path
           d="m 233.195,296.344 c 516.571,10.285 473.141,253.715 473.141,253.715"
           style="fill:none;stroke:#ff0000;stroke-opacity:1;stroke-width:2.24;stroke-linecap:butt;stroke-linejoin:miter;stroke-miterlimit:4;stroke-dasharray:2.24,2.24;stroke-dashoffset:0"
           id="path168" /></g><path
         d="m 256.938,341.242 -26.719,10.434 27.113,9.363 c -4.418,-5.758 -4.551,-13.754 -0.394,-19.797 z"
         style="fill:#000000;fill-opacity:1;fill-rule:evenodd;stroke:none"
         id="path170" /><text
         transform="matrix(1,0,0,-1,567.742,172.4571)"
         id="text172"><tspan
           style="fill:#ff7f2a;fill-opacity:1;fill-rule:nonzero;stroke:none;font-family:Bitstream Charter;font-variant:normal;font-weight:normal;font-size:20.8;writing-mode:lr;-inkscape-font-specification:BitstreamVeraSansOblique"
           x="0"
           y="0"
           id="tspan174">T</tspan></text>
<g
         id="g176"
         transform="matrix(1,0,0,-1,0,648)"><path
           d="m 121.113,468.914 0,70.856"
           style="fill:none;stroke:#000000;stroke-opacity:1;stroke-width:2.24;stroke-linecap:butt;stroke-linejoin:miter;stroke-miterlimit:4;stroke-dasharray:2.24,2.24;stroke-dashoffset:0"
           id="path178" /></g><path
         d="m 131.051,132.176 -9.899,-26.922 -9.898,26.922 c 5.844,-4.301 13.84,-4.278 19.797,0 z"
         style="fill:#000000;fill-opacity:1;fill-rule:evenodd;stroke:none"
         id="path180" /><text
         transform="matrix(1,0,0,-1,54.786608,353.51337)"
         id="text182"><tspan
           style="fill:#ff0000;fill-opacity:1;fill-rule:nonzero;stroke:none;font-family:Bitstream Charter;font-variant:normal;font-weight:normal;font-size:32;writing-mode:lr;-inkscape-font-specification:BitstreamVeraSans"
           x="0 24.64 33.472 44.768 56.096 75.712 88.192 107.84 128.128 140.672"
           y="0"
           sodipodi:role="line"
           id="tspan184">Different </tspan><tspan
           style="fill:#ff0000;fill-opacity:1;fill-rule:nonzero;stroke:none;font-family:Bitstream Charter;font-variant:normal;font-weight:normal;font-size:32;writing-mode:lr;-inkscape-font-specification:BitstreamVeraSans"
           x="-37.750016 -13.110016 -4.278016 12.393984 24.937984 38.121984 46.953984 67.241984 87.529984 100.105984 108.937984 128.489984 148.777984"
           y="40"
           sodipodi:role="line"
           id="tspan186">Distribution </tspan></text>
<text
         transform="matrix(1,0,0,-1,213.97411,313.51337)"
         id="text188"><tspan
           style="fill:#ff7f2a;fill-opacity:1;fill-rule:nonzero;stroke:none;font-family:Bitstream Charter;font-variant:normal;font-weight:normal;font-size:32;writing-mode:lr;-inkscape-font-specification:BitstreamVeraSansOblique"
           x="0"
           y="0"
           id="tspan190">P</tspan></text>
<text
         transform="matrix(1,0,0,-1,231.28478,303.42854)"
         id="text192"><tspan
           style="fill:#ff7f2a;fill-opacity:1;fill-rule:nonzero;stroke:none;font-family:Bitstream Charter;font-variant:normal;font-weight:normal;font-size:20.8;writing-mode:lr;-inkscape-font-specification:BitstreamVeraSansOblique"
           x="0"
           y="0"
           id="tspan194">T</tspan></text>
<g
         id="g196"
         transform="matrix(1,0,0,-1,0,648)"><path
           d="m 126.141,60.23 0,70.856"
           style="fill:none;stroke:#000000;stroke-opacity:1;stroke-width:2.24;stroke-linecap:butt;stroke-linejoin:miter;stroke-miterlimit:4;stroke-dasharray:2.24,2.24;stroke-dashoffset:0"
           id="path198" /></g><path
         d="m 136.082,540.859 -9.902,-26.918 -9.899,26.918 c 5.844,-4.3 13.844,-4.273 19.801,0 z"
         style="fill:#000000;fill-opacity:1;fill-rule:evenodd;stroke:none"
         id="path200" /><g
         id="g202"
         transform="matrix(1,0,0,-1,0,648)"><path
           d="m 123.172,343.883 c 2.285,58.285 187.43,77.715 187.43,77.715"
           style="fill:none;stroke:#ff0000;stroke-opacity:1;stroke-width:2.24;stroke-linecap:butt;stroke-linejoin:miter;stroke-miterlimit:4;stroke-dasharray:2.24,2.24;stroke-dashoffset:0"
           id="path204" /></g><path
         d="m 287.824,238.785 25.738,-12.652 -27.804,-7.039 c 4.887,5.367 5.695,13.32 2.066,19.691 z"
         style="fill:#000000;fill-opacity:1;fill-rule:evenodd;stroke:none"
         id="path206" /><g
         id="g208"
         transform="matrix(1,0,0,-1,0,648)"><path
           d="m 1.914,252.23 762.285,0 0,394.286 -762.285,0 0,-394.286 z"
           style="fill:none;stroke:#ff0000;stroke-opacity:1;stroke-width:1.6;stroke-linecap:round;stroke-linejoin:round;stroke-miterlimit:4;stroke-dasharray:1.6,9.6;stroke-dashoffset:0"
           id="path210" /></g></g></g></svg>